<!--?xml version="1.0" encoding="utf-8"?-->
<!-- Generator: Adobe Illustrator 18.0.0, SVG Export Plug-In . SVG Version: 6.00 Build 0)  -->

<svg version="1.1" id="_x31_0"
	xmlns="http://www.w3.org/2000/svg"
	xmlns:xlink="http://www.w3.org/1999/xlink" x="0px" y="0px" viewBox="0 0 512 512" style="width: 256px; height: 256px; opacity: 1;" xml:space="preserve">
	<style type="text/css">
	.st0{fill:#8A33DC;}
	</style>
	<g>
		<path class="st0" d="M168.984,153.84c-42.082,0-73.484,17.008-73.484,32.274v146.16c2.149-1.336,4.41-2.614,6.734-3.832
		c18.054-9.402,41.734-14.625,66.75-14.625c24.962,0,48.649,5.222,66.696,14.625c2.382,1.218,4.648,2.496,6.734,3.832v-146.16
		C242.414,170.848,211.012,153.84,168.984,153.84z"></path>
		<path class="st0" d="M343.008,153.84c-42.024,0-73.43,17.008-73.43,32.274v146.16c2.094-1.336,4.359-2.614,6.734-3.832
		c17.996-9.402,41.734-14.625,66.695-14.625c25.019,0,48.703,5.222,66.758,14.625c2.32,1.218,4.586,2.496,6.73,3.832v-146.16
		C416.496,170.848,385.094,153.84,343.008,153.84z"></path>
		<path class="st0" d="M256,0C114.614,0,0,114.617,0,256c0,141.386,114.614,256,256,256c141.383,0,256-114.614,256-256
		C512,114.617,397.383,0,256,0z M428.453,361.473h-30.5c-1.82,0-3.586-0.402-5.258-1.118c-12.844-5.484-30.09-9.16-49.687-9.16
		c-34.246,0-61.469,11.321-70.352,23.801c-0.23,0.289-0.461,0.578-0.695,0.926c-3.89,4.762-9.75,7.551-15.961,7.551
		c-6.211,0-12.078-2.79-15.965-7.551c-0.23-0.347-0.465-0.637-0.699-0.926c-8.875-12.48-36.102-23.801-70.352-23.801
		c-19.538,0-36.781,3.676-49.625,9.16c-1.676,0.715-3.438,1.118-5.262,1.118H83.539c-7.336,0-13.289-5.954-13.289-13.293V186.114
		c0-16.95,11.374-32.219,31.984-42.958c18.054-9.402,41.734-14.625,66.75-14.625c24.962,0,48.649,5.222,66.696,14.625
		c8.359,4.297,15.148,9.406,20.32,15.035c5.164-5.629,11.953-10.738,20.313-15.035c17.996-9.402,41.734-14.625,66.695-14.625
		c25.019,0,48.703,5.222,66.758,14.625c20.602,10.738,31.981,26.008,31.981,42.958V348.18
		C441.746,355.519,435.797,361.473,428.453,361.473z"></path>
	</g>
</svg>
